<svg xmlns="http://www.w3.org/2000/svg" viewBox="0 0 100 100" width="100" height="100">
  <defs>
    <linearGradient id="bg-grad" x1="0%" y1="0%" x2="100%" y2="100%">
      <stop offset="0%" stop-color="#1e1b4b" />
      <stop offset="100%" stop-color="#0f172a" />
    </linearGradient>
    <linearGradient id="logo-grad" x1="0%" y1="0%" x2="100%" y2="100%">
      <stop offset="0%" stop-color="#a855f7" />
      <stop offset="100%" stop-color="#06b6d4" />
    </linearGradient>
  </defs>
  <!-- Background Shape -->
  <rect width="100" height="100" rx="24" fill="url(#bg-grad)" stroke="#1e293b" stroke-width="2"/>
  
  <!-- Sparkles -->
  <path d="M72,25 C72,30 74,32 79,32 C74,32 72,34 72,39 C72,34 70,32 65,32 C70,32 72,30 72,25 Z" fill="#06b6d4" />
  <path d="M25,65 C25,68 26,69 29,69 C26,69 25,70 25,73 C25,70 24,69 21,69 C24,69 25,68 25,65 Z" fill="#a855f7" />

  <!-- Paper plane -->
  <path d="M35,28 L78,45 L35,62 L43,49 Z" fill="url(#logo-grad)" />
  <path d="M43,49 L55,45 L35,62 Z" fill="#ffffff" opacity="0.4" />
</svg>
